<svg width="4144" height="2227" viewBox="0 0 4144 2227" fill="none" xmlns="http://www.w3.org/2000/svg">
<rect width="4141" height="2227" fill="#030303"/>
<g filter="url(#filter0_d_23_2351)">
<rect x="248.285" y="919" width="29.8571" height="390" rx="14.9286" fill="#ECBA09"/>
<rect x="606.571" y="919" width="29.8571" height="390" rx="14.9286" fill="#ECBA09"/>
<rect x="308" y="993.513" width="29.8571" height="244.146" rx="14.9286" fill="#ECBA09"/>
<rect x="69.1428" y="979.243" width="29.8571" height="275.854" rx="14.9286" fill="#ECBA09"/>
<rect x="546.857" y="991.926" width="29.8571" height="244.146" rx="14.9286" fill="#ECBA09"/>
<rect x="666.285" y="1001.44" width="29.8571" height="225.122" rx="14.9286" fill="#ECBA09"/>
<rect x="367.714" y="1018.88" width="29.8571" height="191.829" rx="14.9286" fill="#ECBA09"/>
<rect x="367.714" y="1018.88" width="29.8571" height="191.829" rx="14.9286" fill="#ECBA09"/>
<rect x="127.285" y="1001.44" width="29.8571" height="225.122" rx="14.9286" fill="#ECBA09"/>
<rect x="487.143" y="1018.88" width="29.8571" height="191.829" rx="14.9286" fill="#ECBA09"/>
<rect x="427.428" y="1052.17" width="29.8571" height="125.244" rx="14.9286" fill="#ECBA09"/>
<rect x="188.572" y="1052.17" width="29.8571" height="125.244" rx="14.9286" fill="#ECBA09"/>
<rect x="11" y="1053.76" width="29.8571" height="125.244" rx="14.9286" fill="#ECBA09"/>
<rect x="726" y="1052.17" width="29.8571" height="125.244" rx="14.9286" fill="#ECBA09"/>
<rect x="784.143" y="1052.17" width="29.8571" height="125.244" rx="14.9286" fill="#ECBA09"/>
</g>
<g filter="url(#filter1_d_23_2351)">
<rect x="1077.29" y="919" width="29.8571" height="390" rx="14.9286" fill="#ECBA09"/>
<rect x="1435.57" y="919" width="29.8571" height="390" rx="14.9286" fill="#ECBA09"/>
<rect x="1137" y="993.513" width="29.8571" height="244.146" rx="14.9286" fill="#ECBA09"/>
<rect x="898.143" y="979.243" width="29.8571" height="275.854" rx="14.9286" fill="#ECBA09"/>
<rect x="1375.86" y="991.926" width="29.8571" height="244.146" rx="14.9286" fill="#ECBA09"/>
<rect x="1495.29" y="1001.44" width="29.8571" height="225.122" rx="14.9286" fill="#ECBA09"/>
<rect x="1196.71" y="1018.88" width="29.8571" height="191.829" rx="14.9286" fill="#ECBA09"/>
<rect x="1196.71" y="1018.88" width="29.8571" height="191.829" rx="14.9286" fill="#ECBA09"/>
<rect x="956.285" y="1001.44" width="29.8571" height="225.122" rx="14.9286" fill="#ECBA09"/>
<rect x="1316.14" y="1018.88" width="29.8571" height="191.829" rx="14.9286" fill="#ECBA09"/>
<rect x="1256.43" y="1052.17" width="29.8571" height="125.244" rx="14.9286" fill="#ECBA09"/>
<rect x="1017.57" y="1052.17" width="29.8571" height="125.244" rx="14.9286" fill="#ECBA09"/>
<rect x="840" y="1053.76" width="29.8571" height="125.244" rx="14.9286" fill="#ECBA09"/>
<rect x="1555" y="1052.17" width="29.8571" height="125.244" rx="14.9286" fill="#ECBA09"/>
<rect x="1613.14" y="1052.17" width="29.8571" height="125.244" rx="14.9286" fill="#ECBA09"/>
</g>
<g filter="url(#filter2_d_23_2351)">
<rect x="1906.29" y="919" width="29.8571" height="390" rx="14.9286" fill="#ECBA09"/>
<rect x="2264.57" y="919" width="29.8571" height="390" rx="14.9286" fill="#ECBA09"/>
<rect x="1966" y="993.513" width="29.8571" height="244.146" rx="14.9286" fill="#ECBA09"/>
<rect x="1727.14" y="979.243" width="29.8571" height="275.854" rx="14.9286" fill="#ECBA09"/>
<rect x="2204.86" y="991.926" width="29.8571" height="244.146" rx="14.9286" fill="#ECBA09"/>
<rect x="2324.29" y="1001.44" width="29.8571" height="225.122" rx="14.9286" fill="#ECBA09"/>
<rect x="2025.71" y="1018.88" width="29.8571" height="191.829" rx="14.9286" fill="#ECBA09"/>
<rect x="2025.71" y="1018.88" width="29.8571" height="191.829" rx="14.9286" fill="#ECBA09"/>
<rect x="1785.29" y="1001.44" width="29.8571" height="225.122" rx="14.9286" fill="#ECBA09"/>
<rect x="2145.14" y="1018.88" width="29.8571" height="191.829" rx="14.9286" fill="#ECBA09"/>
<rect x="2085.43" y="1052.17" width="29.8571" height="125.244" rx="14.9286" fill="#ECBA09"/>
<rect x="1846.57" y="1052.17" width="29.8571" height="125.244" rx="14.9286" fill="#ECBA09"/>
<rect x="1669" y="1053.76" width="29.8571" height="125.244" rx="14.9286" fill="#ECBA09"/>
<rect x="2384" y="1052.17" width="29.8571" height="125.244" rx="14.9286" fill="#ECBA09"/>
<rect x="2442.14" y="1052.17" width="29.8571" height="125.244" rx="14.9286" fill="#ECBA09"/>
</g>
<g filter="url(#filter3_d_23_2351)">
<rect x="2735.29" y="919" width="29.8571" height="390" rx="14.9286" fill="#ECBA09"/>
<rect x="3093.57" y="919" width="29.8571" height="390" rx="14.9286" fill="#ECBA09"/>
<rect x="2795" y="993.513" width="29.8571" height="244.146" rx="14.9286" fill="#ECBA09"/>
<rect x="2556.14" y="979.243" width="29.8571" height="275.854" rx="14.9286" fill="#ECBA09"/>
<rect x="3033.86" y="991.926" width="29.8571" height="244.146" rx="14.9286" fill="#ECBA09"/>
<rect x="3153.29" y="1001.44" width="29.8571" height="225.122" rx="14.9286" fill="#ECBA09"/>
<rect x="2854.71" y="1018.88" width="29.8571" height="191.829" rx="14.9286" fill="#ECBA09"/>
<rect x="2854.71" y="1018.88" width="29.8571" height="191.829" rx="14.9286" fill="#ECBA09"/>
<rect x="2614.29" y="1001.44" width="29.8571" height="225.122" rx="14.9286" fill="#ECBA09"/>
<rect x="2974.14" y="1018.88" width="29.8571" height="191.829" rx="14.9286" fill="#ECBA09"/>
<rect x="2914.43" y="1052.17" width="29.8571" height="125.244" rx="14.9286" fill="#ECBA09"/>
<rect x="2675.57" y="1052.17" width="29.8571" height="125.244" rx="14.9286" fill="#ECBA09"/>
<rect x="2498" y="1053.76" width="29.8571" height="125.244" rx="14.9286" fill="#ECBA09"/>
<rect x="3213" y="1052.17" width="29.8571" height="125.244" rx="14.9286" fill="#ECBA09"/>
<rect x="3271.14" y="1052.17" width="29.8571" height="125.244" rx="14.9286" fill="#ECBA09"/>
</g>
<g filter="url(#filter4_d_23_2351)">
<rect x="3564.29" y="919" width="29.8571" height="390" rx="14.9286" fill="#ECBA09"/>
<rect x="3922.57" y="919" width="29.8571" height="390" rx="14.9286" fill="#ECBA09"/>
<rect x="3624" y="993.513" width="29.8571" height="244.146" rx="14.9286" fill="#ECBA09"/>
<rect x="3385.14" y="979.243" width="29.8571" height="275.854" rx="14.9286" fill="#ECBA09"/>
<rect x="3862.86" y="991.926" width="29.8571" height="244.146" rx="14.9286" fill="#ECBA09"/>
<rect x="3982.29" y="1001.44" width="29.8571" height="225.122" rx="14.9286" fill="#ECBA09"/>
<rect x="3683.71" y="1018.88" width="29.8571" height="191.829" rx="14.9286" fill="#ECBA09"/>
<rect x="3683.71" y="1018.88" width="29.8571" height="191.829" rx="14.9286" fill="#ECBA09"/>
<rect x="3443.29" y="1001.44" width="29.8571" height="225.122" rx="14.9286" fill="#ECBA09"/>
<rect x="3803.14" y="1018.88" width="29.8571" height="191.829" rx="14.9286" fill="#ECBA09"/>
<rect x="3743.43" y="1052.17" width="29.8571" height="125.244" rx="14.9286" fill="#ECBA09"/>
<rect x="3504.57" y="1052.17" width="29.8571" height="125.244" rx="14.9286" fill="#ECBA09"/>
<rect x="3327" y="1053.76" width="29.8571" height="125.244" rx="14.9286" fill="#ECBA09"/>
<rect x="4042" y="1052.17" width="29.8571" height="125.244" rx="14.9286" fill="#ECBA09"/>
<rect x="4100.14" y="1052.17" width="29.8571" height="125.244" rx="14.9286" fill="#ECBA09"/>
</g>
<defs>
<filter id="filter0_d_23_2351" x="11" y="919" width="817" height="414" filterUnits="userSpaceOnUse" color-interpolation-filters="sRGB">
<feFlood flood-opacity="0" result="BackgroundImageFix"/>
<feColorMatrix in="SourceAlpha" type="matrix" values="0 0 0 0 0 0 0 0 0 0 0 0 0 0 0 0 0 0 127 0" result="hardAlpha"/>
<feOffset dx="10" dy="20"/>
<feGaussianBlur stdDeviation="2"/>
<feComposite in2="hardAlpha" operator="out"/>
<feColorMatrix type="matrix" values="0 0 0 0 0.747917 0 0 0 0 0.0171398 0 0 0 0 0.0171398 0 0 0 1 0"/>
<feBlend mode="normal" in2="BackgroundImageFix" result="effect1_dropShadow_23_2351"/>
<feBlend mode="normal" in="SourceGraphic" in2="effect1_dropShadow_23_2351" result="shape"/>
</filter>
<filter id="filter1_d_23_2351" x="840" y="919" width="817" height="414" filterUnits="userSpaceOnUse" color-interpolation-filters="sRGB">
<feFlood flood-opacity="0" result="BackgroundImageFix"/>
<feColorMatrix in="SourceAlpha" type="matrix" values="0 0 0 0 0 0 0 0 0 0 0 0 0 0 0 0 0 0 127 0" result="hardAlpha"/>
<feOffset dx="10" dy="20"/>
<feGaussianBlur stdDeviation="2"/>
<feComposite in2="hardAlpha" operator="out"/>
<feColorMatrix type="matrix" values="0 0 0 0 0.747917 0 0 0 0 0.0171398 0 0 0 0 0.0171398 0 0 0 1 0"/>
<feBlend mode="normal" in2="BackgroundImageFix" result="effect1_dropShadow_23_2351"/>
<feBlend mode="normal" in="SourceGraphic" in2="effect1_dropShadow_23_2351" result="shape"/>
</filter>
<filter id="filter2_d_23_2351" x="1669" y="919" width="817" height="414" filterUnits="userSpaceOnUse" color-interpolation-filters="sRGB">
<feFlood flood-opacity="0" result="BackgroundImageFix"/>
<feColorMatrix in="SourceAlpha" type="matrix" values="0 0 0 0 0 0 0 0 0 0 0 0 0 0 0 0 0 0 127 0" result="hardAlpha"/>
<feOffset dx="10" dy="20"/>
<feGaussianBlur stdDeviation="2"/>
<feComposite in2="hardAlpha" operator="out"/>
<feColorMatrix type="matrix" values="0 0 0 0 0.747917 0 0 0 0 0.0171398 0 0 0 0 0.0171398 0 0 0 1 0"/>
<feBlend mode="normal" in2="BackgroundImageFix" result="effect1_dropShadow_23_2351"/>
<feBlend mode="normal" in="SourceGraphic" in2="effect1_dropShadow_23_2351" result="shape"/>
</filter>
<filter id="filter3_d_23_2351" x="2498" y="919" width="817" height="414" filterUnits="userSpaceOnUse" color-interpolation-filters="sRGB">
<feFlood flood-opacity="0" result="BackgroundImageFix"/>
<feColorMatrix in="SourceAlpha" type="matrix" values="0 0 0 0 0 0 0 0 0 0 0 0 0 0 0 0 0 0 127 0" result="hardAlpha"/>
<feOffset dx="10" dy="20"/>
<feGaussianBlur stdDeviation="2"/>
<feComposite in2="hardAlpha" operator="out"/>
<feColorMatrix type="matrix" values="0 0 0 0 0.747917 0 0 0 0 0.0171398 0 0 0 0 0.0171398 0 0 0 1 0"/>
<feBlend mode="normal" in2="BackgroundImageFix" result="effect1_dropShadow_23_2351"/>
<feBlend mode="normal" in="SourceGraphic" in2="effect1_dropShadow_23_2351" result="shape"/>
</filter>
<filter id="filter4_d_23_2351" x="3327" y="919" width="817" height="414" filterUnits="userSpaceOnUse" color-interpolation-filters="sRGB">
<feFlood flood-opacity="0" result="BackgroundImageFix"/>
<feColorMatrix in="SourceAlpha" type="matrix" values="0 0 0 0 0 0 0 0 0 0 0 0 0 0 0 0 0 0 127 0" result="hardAlpha"/>
<feOffset dx="10" dy="20"/>
<feGaussianBlur stdDeviation="2"/>
<feComposite in2="hardAlpha" operator="out"/>
<feColorMatrix type="matrix" values="0 0 0 0 0.747917 0 0 0 0 0.0171398 0 0 0 0 0.0171398 0 0 0 1 0"/>
<feBlend mode="normal" in2="BackgroundImageFix" result="effect1_dropShadow_23_2351"/>
<feBlend mode="normal" in="SourceGraphic" in2="effect1_dropShadow_23_2351" result="shape"/>
</filter>
</defs>
</svg>
