<svg width="5047" height="2227" viewBox="0 0 5047 2227" fill="none" xmlns="http://www.w3.org/2000/svg">
<rect x="356" width="4141" height="2227" fill="#030303"/>
<g filter="url(#filter0_d_28_77)">
<rect x="1077.29" y="919" width="29.8571" height="390" rx="14.9286" fill="#ECBA09"/>
<rect x="1435.57" y="919" width="29.8571" height="390" rx="14.9286" fill="#ECBA09"/>
<g filter="url(#filter1_d_28_77)">
<rect x="1137" y="993.513" width="29.8571" height="244.146" rx="14.9286" fill="#ECBA09"/>
</g>
<rect x="898.143" y="979.243" width="29.8571" height="275.854" rx="14.9286" fill="#ECBA09"/>
<rect x="1375.86" y="991.926" width="29.8571" height="244.146" rx="14.9286" fill="#ECBA09"/>
<rect x="1495.29" y="1001.44" width="29.8571" height="225.122" rx="14.9286" fill="#ECBA09"/>
<rect x="1196.71" y="1018.88" width="29.8571" height="191.829" rx="14.9286" fill="#ECBA09"/>
<rect x="1196.71" y="1018.88" width="29.8571" height="191.829" rx="14.9286" fill="#ECBA09"/>
<rect x="956.285" y="1001.44" width="29.8571" height="225.122" rx="14.9286" fill="#ECBA09"/>
<rect x="1316.14" y="1018.88" width="29.8571" height="191.829" rx="14.9286" fill="#ECBA09"/>
<rect x="1256.43" y="1052.17" width="29.8571" height="125.244" rx="14.9286" fill="#ECBA09"/>
<rect x="1017.57" y="1052.17" width="29.8571" height="125.244" rx="14.9286" fill="#ECBA09"/>
<rect x="840" y="1053.76" width="29.8571" height="125.244" rx="14.9286" fill="#ECBA09"/>
<rect x="1555" y="1052.17" width="29.8571" height="125.244" rx="14.9286" fill="#ECBA09"/>
<rect x="1613.14" y="1052.17" width="29.8571" height="125.244" rx="14.9286" fill="#ECBA09"/>
</g>
<g filter="url(#filter2_d_28_77)">
<rect x="237.285" y="919" width="29.8571" height="390" rx="14.9286" fill="#ECBA09"/>
<rect x="595.571" y="919" width="29.8571" height="390" rx="14.9286" fill="#ECBA09"/>
<g filter="url(#filter3_d_28_77)">
<rect x="297" y="993.513" width="29.8571" height="244.146" rx="14.9286" fill="#ECBA09"/>
</g>
<rect x="58.1428" y="979.243" width="29.8571" height="275.854" rx="14.9286" fill="#ECBA09"/>
<rect x="535.857" y="991.926" width="29.8571" height="244.146" rx="14.9286" fill="#ECBA09"/>
<rect x="655.285" y="1001.44" width="29.8571" height="225.122" rx="14.9286" fill="#ECBA09"/>
<rect x="356.714" y="1018.88" width="29.8571" height="191.829" rx="14.9286" fill="#ECBA09"/>
<rect x="356.714" y="1018.88" width="29.8571" height="191.829" rx="14.9286" fill="#ECBA09"/>
<rect x="116.285" y="1001.44" width="29.8571" height="225.122" rx="14.9286" fill="#ECBA09"/>
<rect x="476.143" y="1018.88" width="29.8571" height="191.829" rx="14.9286" fill="#ECBA09"/>
<rect x="416.428" y="1052.17" width="29.8571" height="125.244" rx="14.9286" fill="#ECBA09"/>
<rect x="177.572" y="1052.17" width="29.8571" height="125.244" rx="14.9286" fill="#ECBA09"/>
<rect y="1053.76" width="29.8571" height="125.244" rx="14.9286" fill="#ECBA09"/>
<rect x="715" y="1052.17" width="29.8571" height="125.244" rx="14.9286" fill="#ECBA09"/>
<rect x="773.143" y="1052.17" width="29.8571" height="125.244" rx="14.9286" fill="#ECBA09"/>
</g>
<g filter="url(#filter4_d_28_77)">
<rect x="3627.29" y="927" width="29.8571" height="390" rx="14.9286" fill="#ECBA09"/>
<rect x="3985.57" y="927" width="29.8571" height="390" rx="14.9286" fill="#ECBA09"/>
<rect x="3687" y="1001.51" width="29.8571" height="244.146" rx="14.9286" fill="#ECBA09"/>
<rect x="3448.14" y="987.243" width="29.8571" height="275.854" rx="14.9286" fill="#ECBA09"/>
<rect x="3925.86" y="999.926" width="29.8571" height="244.146" rx="14.9286" fill="#ECBA09"/>
<rect x="4045.29" y="1009.44" width="29.8571" height="225.122" rx="14.9286" fill="#ECBA09"/>
<rect x="3746.71" y="1026.88" width="29.8571" height="191.829" rx="14.9286" fill="#ECBA09"/>
<rect x="3746.71" y="1026.88" width="29.8571" height="191.829" rx="14.9286" fill="#ECBA09"/>
<rect x="3506.29" y="1009.44" width="29.8571" height="225.122" rx="14.9286" fill="#ECBA09"/>
<rect x="3866.14" y="1026.88" width="29.8571" height="191.829" rx="14.9286" fill="#ECBA09"/>
<rect x="3806.43" y="1060.17" width="29.8571" height="125.244" rx="14.9286" fill="#ECBA09"/>
<rect x="3567.57" y="1060.17" width="29.8571" height="125.244" rx="14.9286" fill="#ECBA09"/>
<rect x="3390" y="1061.76" width="29.8571" height="125.244" rx="14.9286" fill="#ECBA09"/>
<rect x="4105" y="1060.17" width="29.8571" height="125.244" rx="14.9286" fill="#ECBA09"/>
<rect x="4163.14" y="1060.17" width="29.8571" height="125.244" rx="14.9286" fill="#ECBA09"/>
</g>
<g filter="url(#filter5_d_28_77)">
<rect x="4467.29" y="927" width="29.8571" height="390" rx="14.9286" fill="#ECBA09"/>
<rect x="4825.57" y="927" width="29.8571" height="390" rx="14.9286" fill="#ECBA09"/>
<rect x="4527" y="1001.51" width="29.8571" height="244.146" rx="14.9286" fill="#ECBA09"/>
<rect x="4288.14" y="987.243" width="29.8571" height="275.854" rx="14.9286" fill="#ECBA09"/>
<rect x="4765.86" y="999.926" width="29.8571" height="244.146" rx="14.9286" fill="#ECBA09"/>
<rect x="4885.29" y="1009.44" width="29.8571" height="225.122" rx="14.9286" fill="#ECBA09"/>
<rect x="4586.71" y="1026.88" width="29.8571" height="191.829" rx="14.9286" fill="#ECBA09"/>
<rect x="4586.71" y="1026.88" width="29.8571" height="191.829" rx="14.9286" fill="#ECBA09"/>
<rect x="4346.29" y="1009.44" width="29.8571" height="225.122" rx="14.9286" fill="#ECBA09"/>
<rect x="4706.14" y="1026.88" width="29.8571" height="191.829" rx="14.9286" fill="#ECBA09"/>
<rect x="4646.43" y="1060.17" width="29.8571" height="125.244" rx="14.9286" fill="#ECBA09"/>
<rect x="4407.57" y="1060.17" width="29.8571" height="125.244" rx="14.9286" fill="#ECBA09"/>
<rect x="4230" y="1061.76" width="29.8571" height="125.244" rx="14.9286" fill="#ECBA09"/>
<rect x="4945" y="1060.17" width="29.8571" height="125.244" rx="14.9286" fill="#ECBA09"/>
<rect x="5003.14" y="1060.17" width="29.8571" height="125.244" rx="14.9286" fill="#ECBA09"/>
</g>
<g filter="url(#filter6_d_28_77)">
<rect x="2549" y="948" width="45" height="304" rx="22.5" fill="#ECBA09"/>
<rect x="2549" y="993" width="45" height="154" rx="22.5" transform="rotate(-90 2549 993)" fill="#ECBA09"/>
<rect x="2549" y="1122" width="45" height="154" rx="22.5" transform="rotate(-90 2549 1122)" fill="#ECBA09"/>
<rect x="2556" y="1252" width="45" height="154" rx="22.5" transform="rotate(-90 2556 1252)" fill="#ECBA09"/>
<path d="M2741 1056.55C2741 1045.2 2750.2 1036 2761.55 1036V1036C2774.31 1036 2783.98 1047.52 2781.78 1060.09L2779.58 1072.7C2779.19 1074.89 2779.04 1077.12 2779.13 1079.34L2785.09 1229.07C2785.59 1241.58 2775.58 1252 2763.05 1252V1252C2750.87 1252 2741 1242.13 2741 1229.95V1056.55Z" fill="#ECBA09"/>
<path d="M2765.12 1076.66C2752.55 1078.92 2741 1069.26 2741 1056.49V1056.49C2741 1045.18 2750.18 1036 2761.49 1036H2765.03C2767.98 1036 2770.91 1036.54 2773.67 1037.61L2805.41 1049.84C2816.86 1054.25 2829.81 1052.02 2839.13 1044.03L2844.5 1039.43C2847.08 1037.22 2850.37 1036 2853.77 1036V1036C2861.63 1036 2868 1042.37 2868 1050.23V1057.41C2868 1070.05 2857.1 1079.94 2844.52 1078.72L2790.16 1073.45C2787.07 1073.15 2783.95 1073.28 2780.89 1073.83L2765.12 1076.66Z" fill="#ECBA09"/>
<path d="M3226 1056.55C3226 1045.2 3235.2 1036 3246.55 1036V1036C3259.31 1036 3268.98 1047.52 3266.78 1060.09L3264.58 1072.7C3264.19 1074.89 3264.04 1077.12 3264.13 1079.34L3270.09 1229.07C3270.59 1241.58 3260.58 1252 3248.05 1252V1252C3235.87 1252 3226 1242.13 3226 1229.95V1056.55Z" fill="#ECBA09"/>
<path d="M3250.12 1076.66C3237.55 1078.92 3226 1069.26 3226 1056.49V1056.49C3226 1045.18 3235.18 1036 3246.49 1036H3250.03C3252.98 1036 3255.91 1036.54 3258.67 1037.61L3290.41 1049.84C3301.86 1054.25 3314.81 1052.02 3324.13 1044.03L3329.5 1039.43C3332.08 1037.22 3335.37 1036 3338.77 1036V1036C3346.63 1036 3353 1042.37 3353 1050.23V1057.41C3353 1070.05 3342.1 1079.94 3329.52 1078.72L3275.16 1073.45C3272.07 1073.15 3268.95 1073.28 3265.89 1073.83L3250.12 1076.66Z" fill="#ECBA09"/>
<path d="M2899 1056.55C2899 1045.2 2908.2 1036 2919.55 1036V1036C2932.31 1036 2941.98 1047.52 2939.78 1060.09L2937.58 1072.7C2937.19 1074.89 2937.04 1077.12 2937.13 1079.34L2943.09 1229.07C2943.59 1241.58 2933.58 1252 2921.05 1252V1252C2908.87 1252 2899 1242.13 2899 1229.95V1056.55Z" fill="#ECBA09"/>
<path d="M2899 1056.55C2899 1045.2 2908.2 1036 2919.55 1036V1036C2932.31 1036 2941.98 1047.52 2939.78 1060.09L2937.58 1072.7C2937.19 1074.89 2937.04 1077.12 2937.13 1079.34L2943.09 1229.07C2943.59 1241.58 2933.58 1252 2921.05 1252V1252C2908.87 1252 2899 1242.13 2899 1229.95V1056.55Z" fill="#ECBA09"/>
<path d="M2923.12 1076.66C2910.55 1078.92 2899 1069.26 2899 1056.49V1056.49C2899 1045.18 2908.18 1036 2919.49 1036H2923.03C2925.98 1036 2928.91 1036.54 2931.67 1037.61L2963.41 1049.84C2974.86 1054.25 2987.81 1052.02 2997.13 1044.03L3002.5 1039.43C3005.08 1037.22 3008.37 1036 3011.77 1036V1036C3019.63 1036 3026 1042.37 3026 1050.23V1057.41C3026 1070.05 3015.1 1079.94 3002.52 1078.72L2948.16 1073.45C2945.07 1073.15 2941.95 1073.28 2938.89 1073.83L2923.12 1076.66Z" fill="#ECBA09"/>
<rect x="3043" y="1036" width="45" height="216" rx="22.5" fill="#ECBA09"/>
<rect x="3043" y="1081" width="45" height="152" rx="22.5" transform="rotate(-90 3043 1081)" fill="#ECBA09"/>
<rect x="3043" y="1252" width="45" height="152" rx="22.5" transform="rotate(-90 3043 1252)" fill="#ECBA09"/>
<rect x="3150" y="1036" width="45" height="216" rx="22.5" fill="#ECBA09"/>
</g>
<g filter="url(#filter7_d_28_77)">
<rect x="1843" y="745" width="45" height="547" rx="22.5" fill="#ECBA09"/>
<rect x="1680" y="803" width="45" height="185" rx="22.5" fill="#ECBA09"/>
<rect x="1680" y="988" width="45" height="185" rx="22.5" transform="rotate(-90 1680 988)" fill="#ECBA09"/>
<rect x="2395" y="745" width="45" height="547" rx="22.5" fill="#ECBA09"/>
<rect x="2232" y="803" width="45" height="185" rx="22.5" fill="#ECBA09"/>
<rect x="2232" y="988" width="45" height="185" rx="22.5" transform="rotate(-90 2232 988)" fill="#ECBA09"/>
<rect x="2119" y="813" width="45" height="429" rx="22.5" fill="#ECBA09"/>
<rect x="1956" y="813" width="45" height="429" rx="22.5" fill="#ECBA09"/>
<rect x="1956" y="858" width="45" height="208" rx="22.5" transform="rotate(-90 1956 858)" fill="#ECBA09"/>
<rect x="1956" y="1242" width="45" height="208" rx="22.5" transform="rotate(-90 1956 1242)" fill="#ECBA09"/>
</g>
<defs>
<filter id="filter0_d_28_77" x="840" y="919" width="817" height="414" filterUnits="userSpaceOnUse" color-interpolation-filters="sRGB">
<feFlood flood-opacity="0" result="BackgroundImageFix"/>
<feColorMatrix in="SourceAlpha" type="matrix" values="0 0 0 0 0 0 0 0 0 0 0 0 0 0 0 0 0 0 127 0" result="hardAlpha"/>
<feOffset dx="10" dy="20"/>
<feGaussianBlur stdDeviation="2"/>
<feComposite in2="hardAlpha" operator="out"/>
<feColorMatrix type="matrix" values="0 0 0 0 0.747917 0 0 0 0 0.0171398 0 0 0 0 0.0171398 0 0 0 1 0"/>
<feBlend mode="normal" in2="BackgroundImageFix" result="effect1_dropShadow_28_77"/>
<feBlend mode="normal" in="SourceGraphic" in2="effect1_dropShadow_28_77" result="shape"/>
</filter>
<filter id="filter1_d_28_77" x="1133" y="993.513" width="37.8572" height="252.146" filterUnits="userSpaceOnUse" color-interpolation-filters="sRGB">
<feFlood flood-opacity="0" result="BackgroundImageFix"/>
<feColorMatrix in="SourceAlpha" type="matrix" values="0 0 0 0 0 0 0 0 0 0 0 0 0 0 0 0 0 0 127 0" result="hardAlpha"/>
<feOffset dy="4"/>
<feGaussianBlur stdDeviation="2"/>
<feComposite in2="hardAlpha" operator="out"/>
<feColorMatrix type="matrix" values="0 0 0 0 0 0 0 0 0 0 0 0 0 0 0 0 0 0 0.25 0"/>
<feBlend mode="normal" in2="BackgroundImageFix" result="effect1_dropShadow_28_77"/>
<feBlend mode="normal" in="SourceGraphic" in2="effect1_dropShadow_28_77" result="shape"/>
</filter>
<filter id="filter2_d_28_77" x="0" y="919" width="817" height="414" filterUnits="userSpaceOnUse" color-interpolation-filters="sRGB">
<feFlood flood-opacity="0" result="BackgroundImageFix"/>
<feColorMatrix in="SourceAlpha" type="matrix" values="0 0 0 0 0 0 0 0 0 0 0 0 0 0 0 0 0 0 127 0" result="hardAlpha"/>
<feOffset dx="10" dy="20"/>
<feGaussianBlur stdDeviation="2"/>
<feComposite in2="hardAlpha" operator="out"/>
<feColorMatrix type="matrix" values="0 0 0 0 0.747917 0 0 0 0 0.0171398 0 0 0 0 0.0171398 0 0 0 1 0"/>
<feBlend mode="normal" in2="BackgroundImageFix" result="effect1_dropShadow_28_77"/>
<feBlend mode="normal" in="SourceGraphic" in2="effect1_dropShadow_28_77" result="shape"/>
</filter>
<filter id="filter3_d_28_77" x="293" y="993.513" width="37.8572" height="252.146" filterUnits="userSpaceOnUse" color-interpolation-filters="sRGB">
<feFlood flood-opacity="0" result="BackgroundImageFix"/>
<feColorMatrix in="SourceAlpha" type="matrix" values="0 0 0 0 0 0 0 0 0 0 0 0 0 0 0 0 0 0 127 0" result="hardAlpha"/>
<feOffset dy="4"/>
<feGaussianBlur stdDeviation="2"/>
<feComposite in2="hardAlpha" operator="out"/>
<feColorMatrix type="matrix" values="0 0 0 0 0 0 0 0 0 0 0 0 0 0 0 0 0 0 0.25 0"/>
<feBlend mode="normal" in2="BackgroundImageFix" result="effect1_dropShadow_28_77"/>
<feBlend mode="normal" in="SourceGraphic" in2="effect1_dropShadow_28_77" result="shape"/>
</filter>
<filter id="filter4_d_28_77" x="3390" y="927" width="817" height="414" filterUnits="userSpaceOnUse" color-interpolation-filters="sRGB">
<feFlood flood-opacity="0" result="BackgroundImageFix"/>
<feColorMatrix in="SourceAlpha" type="matrix" values="0 0 0 0 0 0 0 0 0 0 0 0 0 0 0 0 0 0 127 0" result="hardAlpha"/>
<feOffset dx="10" dy="20"/>
<feGaussianBlur stdDeviation="2"/>
<feComposite in2="hardAlpha" operator="out"/>
<feColorMatrix type="matrix" values="0 0 0 0 0.747917 0 0 0 0 0.0171398 0 0 0 0 0.0171398 0 0 0 1 0"/>
<feBlend mode="normal" in2="BackgroundImageFix" result="effect1_dropShadow_28_77"/>
<feBlend mode="normal" in="SourceGraphic" in2="effect1_dropShadow_28_77" result="shape"/>
</filter>
<filter id="filter5_d_28_77" x="4230" y="927" width="817" height="414" filterUnits="userSpaceOnUse" color-interpolation-filters="sRGB">
<feFlood flood-opacity="0" result="BackgroundImageFix"/>
<feColorMatrix in="SourceAlpha" type="matrix" values="0 0 0 0 0 0 0 0 0 0 0 0 0 0 0 0 0 0 127 0" result="hardAlpha"/>
<feOffset dx="10" dy="20"/>
<feGaussianBlur stdDeviation="2"/>
<feComposite in2="hardAlpha" operator="out"/>
<feColorMatrix type="matrix" values="0 0 0 0 0.747917 0 0 0 0 0.0171398 0 0 0 0 0.0171398 0 0 0 1 0"/>
<feBlend mode="normal" in2="BackgroundImageFix" result="effect1_dropShadow_28_77"/>
<feBlend mode="normal" in="SourceGraphic" in2="effect1_dropShadow_28_77" result="shape"/>
</filter>
<filter id="filter6_d_28_77" x="2549" y="948" width="818" height="328" filterUnits="userSpaceOnUse" color-interpolation-filters="sRGB">
<feFlood flood-opacity="0" result="BackgroundImageFix"/>
<feColorMatrix in="SourceAlpha" type="matrix" values="0 0 0 0 0 0 0 0 0 0 0 0 0 0 0 0 0 0 127 0" result="hardAlpha"/>
<feOffset dx="10" dy="20"/>
<feGaussianBlur stdDeviation="2"/>
<feComposite in2="hardAlpha" operator="out"/>
<feColorMatrix type="matrix" values="0 0 0 0 0.747917 0 0 0 0 0.0171398 0 0 0 0 0.0171398 0 0 0 1 0"/>
<feBlend mode="normal" in2="BackgroundImageFix" result="effect1_dropShadow_28_77"/>
<feBlend mode="normal" in="SourceGraphic" in2="effect1_dropShadow_28_77" result="shape"/>
</filter>
<filter id="filter7_d_28_77" x="1680" y="745" width="774" height="571" filterUnits="userSpaceOnUse" color-interpolation-filters="sRGB">
<feFlood flood-opacity="0" result="BackgroundImageFix"/>
<feColorMatrix in="SourceAlpha" type="matrix" values="0 0 0 0 0 0 0 0 0 0 0 0 0 0 0 0 0 0 127 0" result="hardAlpha"/>
<feOffset dx="10" dy="20"/>
<feGaussianBlur stdDeviation="2"/>
<feComposite in2="hardAlpha" operator="out"/>
<feColorMatrix type="matrix" values="0 0 0 0 0.747917 0 0 0 0 0.0171398 0 0 0 0 0.0171398 0 0 0 1 0"/>
<feBlend mode="normal" in2="BackgroundImageFix" result="effect1_dropShadow_28_77"/>
<feBlend mode="normal" in="SourceGraphic" in2="effect1_dropShadow_28_77" result="shape"/>
</filter>
</defs>
</svg>
