<svg width="512" height="512" viewBox="0 0 512 512" fill="none" xmlns="http://www.w3.org/2000/svg">
<rect width="512" height="512" fill="#101010"/>
<path d="M149.037 295.568L183.544 352.239L180.494 354.869L147.923 301.423L119.553 325.88L152.1 379.347L149.074 381.955L114.566 325.284L149.037 295.568ZM205.774 357.381L170.221 298.911L173.102 296.427L178.904 305.899L179.267 305.586C178.729 303.265 178.512 300.892 178.616 298.467C178.736 296.029 179.304 293.669 180.319 291.387C181.336 289.076 182.91 287.002 185.04 285.165C188.042 282.577 191.228 281.265 194.6 281.228C197.972 281.19 201.274 282.296 204.507 284.545C207.739 286.794 210.67 290.062 213.298 294.351C215.896 298.638 217.584 302.978 218.361 307.371C219.141 311.735 219.005 315.819 217.952 319.623C216.886 323.412 214.868 326.586 211.899 329.146C209.785 330.968 207.646 332.109 205.482 332.568C203.334 333.013 201.263 332.928 199.269 332.312C197.261 331.68 195.4 330.696 193.686 329.36L193.396 329.611L208.727 354.835L205.774 357.381ZM186.117 317.741C188.327 321.349 190.769 324.181 193.442 326.238C196.117 328.264 198.847 329.342 201.632 329.473C204.419 329.574 207.064 328.546 209.565 326.39C212.099 324.205 213.772 321.497 214.586 318.264C215.402 315 215.433 311.513 214.681 307.801C213.945 304.075 212.492 300.433 210.324 296.873C208.155 293.313 205.741 290.513 203.083 288.473C200.424 286.433 197.709 285.356 194.937 285.241C192.152 285.11 189.477 286.151 186.911 288.363C184.393 290.533 182.713 293.234 181.869 296.465C181.011 299.68 180.952 303.135 181.69 306.83C182.431 310.496 183.907 314.133 186.117 317.741ZM251.375 295.115C248.018 298.009 244.518 299.578 240.874 299.821C237.23 300.065 233.727 299.118 230.365 296.981C227.004 294.843 224.036 291.662 221.464 287.438C218.877 283.198 217.252 278.832 216.587 274.341C215.923 269.851 216.199 265.618 217.415 261.644C218.63 257.671 220.78 254.355 223.862 251.698C225.944 249.903 228.202 248.688 230.636 248.053C233.086 247.403 235.575 247.353 238.102 247.903C240.616 248.437 243.052 249.614 245.41 251.436C247.767 253.257 249.91 255.742 251.837 258.891L253.084 261.023L223.648 286.399L221.792 283.316L248.25 260.507C246.393 257.438 244.177 255.129 241.602 253.578C239.014 252.012 236.348 251.301 233.602 251.445C230.873 251.575 228.323 252.663 225.95 254.708C223.53 256.795 221.827 259.486 220.843 262.782C219.861 266.048 219.588 269.518 220.026 273.191C220.481 276.851 221.653 280.299 223.543 283.536L224.546 285.287C226.785 288.928 229.277 291.688 232.023 293.568C234.772 295.419 237.633 296.258 240.607 296.085C243.567 295.896 246.491 294.557 249.38 292.067C251.397 290.328 252.896 288.445 253.877 286.417C254.86 284.36 255.476 282.366 255.725 280.436C255.99 278.491 256.041 276.788 255.877 275.326L259.261 274.307C259.59 276.19 259.596 278.351 259.279 280.79C258.949 283.213 258.162 285.677 256.919 288.184C255.676 290.69 253.827 293.001 251.375 295.115ZM275.779 272.726L249.923 230.202L264.035 218.036C267.876 214.725 271.497 213.052 274.899 213.017C278.287 212.966 280.977 214.585 282.969 217.875C284.449 220.341 285.062 222.864 284.811 225.444C284.575 228.01 283.589 230.619 281.852 233.27C283.536 232.352 285.263 231.876 287.034 231.841C288.806 231.776 290.49 232.195 292.085 233.099C293.679 234.002 295.062 235.427 296.232 237.372C297.632 239.681 298.396 242.117 298.524 244.68C298.637 247.226 298.135 249.727 297.016 252.182C295.898 254.637 294.168 256.874 291.828 258.891L275.779 272.726ZM276.72 267.063L289.913 255.69C292.446 253.505 294.012 250.932 294.609 247.97C295.192 244.992 294.694 242.228 293.115 239.679C291.511 237.067 289.53 235.568 287.171 235.182C284.829 234.782 282.536 235.549 280.293 237.483L266.132 249.691L276.72 267.063ZM264.248 246.673L276.037 236.51C277.796 234.994 279.139 233.288 280.065 231.393C280.993 229.467 281.461 227.53 281.469 225.582C281.478 223.634 280.968 221.851 279.939 220.234C278.509 217.922 276.587 216.851 274.172 217.019C271.774 217.174 269.033 218.58 265.951 221.237L254.695 230.941L264.248 246.673ZM300.52 213.209L311.631 203.631C315.585 200.223 319.36 198.614 322.957 198.805C326.54 198.979 329.591 201.132 332.11 205.261C333.724 207.949 334.589 210.649 334.705 213.362C334.837 216.061 334.241 218.714 332.914 221.32C331.591 223.896 329.573 226.352 326.862 228.689L313.524 240.188L287.667 197.664L290.621 195.118L314.541 234.416L324.925 225.464C327.895 222.904 329.818 220.093 330.694 217.031C331.571 213.969 331.009 210.837 329.01 207.638C327.099 204.475 324.806 202.907 322.13 202.936C319.456 202.934 316.61 204.234 313.592 206.836L302.481 216.414L300.52 213.209ZM350.735 174.014L352.696 177.219L335.315 192.202L333.33 189.019L350.735 174.014ZM323.536 166.742L349.393 209.266L346.391 211.854L320.607 169.267L323.536 166.742ZM378.213 185.771C375.131 188.429 371.808 189.844 368.245 190.019C364.682 190.193 361.196 189.217 357.788 187.091C354.382 184.935 351.374 181.706 348.761 177.403C346.205 173.165 344.601 168.809 343.951 164.334C343.3 159.859 343.589 155.658 344.817 151.731C346.044 147.803 348.175 144.531 351.209 141.916C354.307 139.245 357.645 137.83 361.222 137.672C364.815 137.5 368.315 138.492 371.721 140.648C375.142 142.79 378.152 146.004 380.751 150.291C383.293 154.513 384.89 158.861 385.54 163.336C386.177 167.794 385.873 171.994 384.63 175.936C383.402 179.864 381.263 183.142 378.213 185.771ZM376.145 182.786C378.776 180.518 380.556 177.704 381.484 174.343C382.399 170.966 382.521 167.387 381.849 163.606C381.18 159.795 379.761 156.109 377.592 152.549C375.447 149.082 372.987 146.392 370.213 144.479C367.425 142.551 364.566 141.583 361.635 141.578C358.691 141.556 355.928 142.658 353.346 144.884C350.731 147.138 348.967 149.953 348.052 153.33C347.137 156.707 347.014 160.301 347.684 164.112C348.369 167.909 349.781 171.587 351.92 175.145C354.019 178.624 356.463 181.328 359.251 183.256C362.041 185.155 364.908 186.115 367.852 186.137C370.799 186.129 373.563 185.012 376.145 182.786Z" fill="white"/>
</svg>
