<svg width="511" height="246" viewBox="0 0 511 246" fill="none" xmlns="http://www.w3.org/2000/svg">
<rect x="151" width="19" height="246" rx="9.5" fill="#ECBA09"/>
<rect x="379" width="19" height="246" rx="9.5" fill="#ECBA09"/>
<rect x="189" y="47" width="19" height="154" rx="9.5" fill="#ECBA09"/>
<rect x="37" y="38" width="19" height="174" rx="9.5" fill="#ECBA09"/>
<rect x="341" y="46" width="19" height="154" rx="9.5" fill="#ECBA09"/>
<rect x="417" y="52" width="19" height="142" rx="9.5" fill="#ECBA09"/>
<rect x="227" y="63" width="19" height="121" rx="9.5" fill="#ECBA09"/>
<rect x="227" y="63" width="19" height="121" rx="9.5" fill="#ECBA09"/>
<rect x="74" y="52" width="19" height="142" rx="9.5" fill="#ECBA09"/>
<rect x="303" y="63" width="19" height="121" rx="9.5" fill="#ECBA09"/>
<rect x="265" y="84" width="19" height="79" rx="9.5" fill="#ECBA09"/>
<rect x="113" y="84" width="19" height="79" rx="9.5" fill="#ECBA09"/>
<rect y="85" width="19" height="79" rx="9.5" fill="#ECBA09"/>
<rect x="455" y="84" width="19" height="79" rx="9.5" fill="#ECBA09"/>
<rect x="492" y="84" width="19" height="79" rx="9.5" fill="#ECBA09"/>
</svg>
